<svg xmlns="http://www.w3.org/2000/svg" xmlns:xlink="http://www.w3.org/1999/xlink" width="500" zoomAndPan="magnify" viewBox="0 0 375 374.999991" height="500" preserveAspectRatio="xMidYMid meet" version="1.0"><defs><g/><clipPath id="e17b92e27e"><path d="M 24.988281 24.988281 L 350.011719 24.988281 L 350.011719 350.011719 L 24.988281 350.011719 Z M 24.988281 24.988281 " clip-rule="nonzero"/></clipPath><clipPath id="5a5a5c1e29"><path d="M 187.5 24.988281 C 97.746094 24.988281 24.988281 97.746094 24.988281 187.5 C 24.988281 277.253906 97.746094 350.011719 187.5 350.011719 C 277.253906 350.011719 350.011719 277.253906 350.011719 187.5 C 350.011719 97.746094 277.253906 24.988281 187.5 24.988281 Z M 187.5 24.988281 " clip-rule="nonzero"/></clipPath><clipPath id="1de0ba7888"><path d="M 24.988281 24.988281 L 349.738281 24.988281 L 349.738281 349.738281 L 24.988281 349.738281 Z M 24.988281 24.988281 " clip-rule="nonzero"/></clipPath></defs><g clip-path="url(#e17b92e27e)"><g clip-path="url(#5a5a5c1e29)"><path fill="#cbddd1" d="M 24.988281 24.988281 L 350.011719 24.988281 L 350.011719 350.011719 L 24.988281 350.011719 Z M 24.988281 24.988281 " fill-opacity="1" fill-rule="nonzero"/></g></g><g clip-path="url(#1de0ba7888)"><path fill="#f6f6e9" d="M 187.5 24.988281 C 97.835938 24.988281 24.988281 97.835938 24.988281 187.5 C 24.988281 277.164062 97.835938 350.007812 187.5 350.007812 C 277.164062 350.007812 350.007812 277.164062 350.007812 187.5 C 350.007812 97.835938 277.164062 24.988281 187.5 24.988281 Z M 187.5 32.054688 C 273.4375 32.054688 342.941406 101.558594 342.941406 187.5 C 342.941406 273.4375 273.4375 342.941406 187.5 342.941406 C 101.558594 342.941406 32.054688 273.4375 32.054688 187.5 C 32.054688 101.558594 101.558594 32.054688 187.5 32.054688 Z M 187.5 32.054688 " fill-opacity="1" fill-rule="nonzero"/></g><g fill="#272727" fill-opacity="1"><g transform="translate(132.365146, 200.269862)"><g><path d="M 29.96875 -11.09375 C 34.351562 -11.289062 37.710938 -12.820312 40.046875 -15.6875 C 40.453125 -16.144531 40.882812 -16.375 41.34375 -16.375 C 41.75 -16.375 42.117188 -16.207031 42.453125 -15.875 L 48.140625 -10.390625 C 48.535156 -9.984375 48.734375 -9.582031 48.734375 -9.1875 C 48.734375 -8.71875 48.601562 -8.316406 48.34375 -7.984375 C 46.144531 -5.253906 43.328125 -3.109375 39.890625 -1.546875 C 36.460938 0.015625 32.722656 0.796875 28.671875 0.796875 C 22.535156 0.796875 17.453125 -0.765625 13.421875 -3.890625 C 9.398438 -7.023438 6.691406 -11.320312 5.296875 -16.78125 C 4.492188 -19.707031 4.09375 -22.800781 4.09375 -26.0625 C 4.09375 -29.925781 4.457031 -33.191406 5.1875 -35.859375 C 6.519531 -40.785156 9.203125 -44.742188 13.234375 -47.734375 C 17.265625 -50.734375 22.039062 -52.234375 27.5625 -52.234375 C 34.09375 -52.234375 39.269531 -50.300781 43.09375 -46.4375 C 46.925781 -42.582031 49.40625 -37.15625 50.53125 -30.15625 C 50.800781 -27.957031 51.003906 -25.53125 51.140625 -22.875 C 51.140625 -21.738281 50.570312 -21.171875 49.4375 -21.171875 L 18.78125 -21.171875 C 18.375 -21.171875 18.171875 -20.972656 18.171875 -20.578125 C 18.378906 -19.179688 18.613281 -18.148438 18.875 -17.484375 C 19.539062 -15.410156 20.851562 -13.828125 22.8125 -12.734375 C 24.78125 -11.640625 27.164062 -11.09375 29.96875 -11.09375 Z M 27.359375 -40.046875 C 25.234375 -40.046875 23.453125 -39.53125 22.015625 -38.5 C 20.585938 -37.46875 19.609375 -36.019531 19.078125 -34.15625 C 18.742188 -32.894531 18.546875 -32.0625 18.484375 -31.65625 C 18.410156 -31.257812 18.570312 -31.0625 18.96875 -31.0625 L 35.953125 -31.0625 C 36.285156 -31.0625 36.453125 -31.191406 36.453125 -31.453125 C 36.453125 -32.191406 36.320312 -32.957031 36.0625 -33.75 C 35.457031 -35.6875 34.421875 -37.21875 32.953125 -38.34375 C 31.492188 -39.476562 29.628906 -40.046875 27.359375 -40.046875 Z M 27.359375 -40.046875 "/></g></g></g><g fill="#272727" fill-opacity="1"><g transform="translate(186.990549, 200.269862)"><g><path d="M 36.15625 -68.21875 C 36.15625 -69.34375 36.722656 -69.90625 37.859375 -69.90625 L 48.546875 -69.90625 C 49.671875 -69.90625 50.234375 -69.34375 50.234375 -68.21875 L 50.234375 -1.703125 C 50.234375 -0.566406 49.671875 0 48.546875 0 L 37.859375 0 C 36.722656 0 36.15625 -0.566406 36.15625 -1.703125 L 36.15625 -4.390625 C 36.15625 -4.660156 36.070312 -4.8125 35.90625 -4.84375 C 35.738281 -4.875 35.585938 -4.789062 35.453125 -4.59375 C 32.722656 -1 28.925781 0.796875 24.0625 0.796875 C 19.539062 0.796875 15.53125 -0.550781 12.03125 -3.25 C 8.539062 -5.945312 6.128906 -9.488281 4.796875 -13.875 C 3.660156 -17.070312 3.09375 -21.070312 3.09375 -25.875 C 3.09375 -30.800781 3.726562 -34.925781 5 -38.25 C 6.457031 -42.507812 8.867188 -45.90625 12.234375 -48.4375 C 15.597656 -50.96875 19.539062 -52.234375 24.0625 -52.234375 C 28.988281 -52.234375 32.785156 -50.601562 35.453125 -47.34375 C 35.585938 -47.144531 35.738281 -47.078125 35.90625 -47.140625 C 36.070312 -47.203125 36.15625 -47.367188 36.15625 -47.640625 Z M 34.0625 -15.78125 C 35.394531 -18.238281 36.0625 -21.535156 36.0625 -25.671875 C 36.0625 -30.066406 35.359375 -33.492188 33.953125 -35.953125 C 32.285156 -38.546875 30.054688 -39.84375 27.265625 -39.84375 C 24.203125 -39.84375 21.875 -38.582031 20.28125 -36.0625 C 18.675781 -33.394531 17.875 -29.894531 17.875 -25.5625 C 17.875 -21.632812 18.570312 -18.375 19.96875 -15.78125 C 21.570312 -12.914062 24.003906 -11.484375 27.265625 -11.484375 C 30.191406 -11.484375 32.457031 -12.914062 34.0625 -15.78125 Z M 34.0625 -15.78125 "/></g></g></g><g fill="#272727" fill-opacity="1"><g transform="translate(132.853047, 258.974098)"><g><path d="M 29.96875 -11.09375 C 34.351562 -11.289062 37.710938 -12.820312 40.046875 -15.6875 C 40.453125 -16.144531 40.882812 -16.375 41.34375 -16.375 C 41.75 -16.375 42.117188 -16.207031 42.453125 -15.875 L 48.140625 -10.390625 C 48.535156 -9.984375 48.734375 -9.582031 48.734375 -9.1875 C 48.734375 -8.71875 48.601562 -8.316406 48.34375 -7.984375 C 46.144531 -5.253906 43.328125 -3.109375 39.890625 -1.546875 C 36.460938 0.015625 32.722656 0.796875 28.671875 0.796875 C 22.535156 0.796875 17.453125 -0.765625 13.421875 -3.890625 C 9.398438 -7.023438 6.691406 -11.320312 5.296875 -16.78125 C 4.492188 -19.707031 4.09375 -22.800781 4.09375 -26.0625 C 4.09375 -29.925781 4.457031 -33.191406 5.1875 -35.859375 C 6.519531 -40.785156 9.203125 -44.742188 13.234375 -47.734375 C 17.265625 -50.734375 22.039062 -52.234375 27.5625 -52.234375 C 34.09375 -52.234375 39.269531 -50.300781 43.09375 -46.4375 C 46.925781 -42.582031 49.40625 -37.15625 50.53125 -30.15625 C 50.800781 -27.957031 51.003906 -25.53125 51.140625 -22.875 C 51.140625 -21.738281 50.570312 -21.171875 49.4375 -21.171875 L 18.78125 -21.171875 C 18.375 -21.171875 18.171875 -20.972656 18.171875 -20.578125 C 18.378906 -19.179688 18.613281 -18.148438 18.875 -17.484375 C 19.539062 -15.410156 20.851562 -13.828125 22.8125 -12.734375 C 24.78125 -11.640625 27.164062 -11.09375 29.96875 -11.09375 Z M 27.359375 -40.046875 C 25.234375 -40.046875 23.453125 -39.53125 22.015625 -38.5 C 20.585938 -37.46875 19.609375 -36.019531 19.078125 -34.15625 C 18.742188 -32.894531 18.546875 -32.0625 18.484375 -31.65625 C 18.410156 -31.257812 18.570312 -31.0625 18.96875 -31.0625 L 35.953125 -31.0625 C 36.285156 -31.0625 36.453125 -31.191406 36.453125 -31.453125 C 36.453125 -32.191406 36.320312 -32.957031 36.0625 -33.75 C 35.457031 -35.6875 34.421875 -37.21875 32.953125 -38.34375 C 31.492188 -39.476562 29.628906 -40.046875 27.359375 -40.046875 Z M 27.359375 -40.046875 "/></g></g></g><g fill="#272727" fill-opacity="1"><g transform="translate(187.47845, 258.974098)"><g><path d="M 31.953125 -52.140625 C 37.285156 -52.140625 41.582031 -50.503906 44.84375 -47.234375 C 48.101562 -43.972656 49.734375 -39.546875 49.734375 -33.953125 L 49.734375 -1.703125 C 49.734375 -0.566406 49.171875 0 48.046875 0 L 37.359375 0 C 36.222656 0 35.65625 -0.566406 35.65625 -1.703125 L 35.65625 -31.0625 C 35.65625 -33.726562 34.921875 -35.890625 33.453125 -37.546875 C 31.992188 -39.210938 30.03125 -40.046875 27.5625 -40.046875 C 25.101562 -40.046875 23.109375 -39.210938 21.578125 -37.546875 C 20.046875 -35.890625 19.28125 -33.726562 19.28125 -31.0625 L 19.28125 -1.703125 C 19.28125 -0.566406 18.710938 0 17.578125 0 L 6.890625 0 C 5.753906 0 5.1875 -0.566406 5.1875 -1.703125 L 5.1875 -49.640625 C 5.1875 -50.765625 5.753906 -51.328125 6.890625 -51.328125 L 17.578125 -51.328125 C 18.710938 -51.328125 19.28125 -50.765625 19.28125 -49.640625 L 19.28125 -46.84375 C 19.28125 -46.570312 19.34375 -46.398438 19.46875 -46.328125 C 19.601562 -46.265625 19.738281 -46.335938 19.875 -46.546875 C 22.601562 -50.273438 26.628906 -52.140625 31.953125 -52.140625 Z M 31.953125 -52.140625 "/></g></g></g><path fill="#457d58" d="M 141.515625 98.257812 C 141.515625 98.257812 179.613281 95.648438 179.871094 136.613281 C 138.90625 136.355469 141.515625 98.257812 141.515625 98.257812 Z M 141.515625 98.257812 " fill-opacity="1" fill-rule="nonzero"/><path fill="#457d58" d="M 182.101562 138.84375 L 179.859375 138.828125 C 166.644531 138.746094 156.367188 134.847656 149.308594 127.242188 C 138.261719 115.339844 139.257812 98.804688 139.308594 98.105469 L 139.4375 96.183594 L 141.363281 96.046875 C 141.363281 96.046875 141.90625 96.011719 142.863281 96.011719 C 149.371094 96.011719 181.839844 97.96875 182.085938 136.601562 Z M 143.714844 100.449219 C 143.835938 104.96875 144.960938 116.066406 152.582031 124.261719 C 158.371094 130.480469 166.78125 133.867188 177.601562 134.34375 C 176.273438 103.976562 152.453125 100.636719 143.714844 100.449219 Z M 143.714844 100.449219 " fill-opacity="1" fill-rule="nonzero"/><path fill="#457d58" d="M 186.894531 57.945312 C 186.894531 57.945312 215.675781 83.039062 186.894531 112.191406 C 158.113281 83.039062 186.894531 57.945312 186.894531 57.945312 Z M 186.894531 57.945312 " fill-opacity="1" fill-rule="nonzero"/><path fill="#457d58" d="M 186.894531 115.339844 L 185.320312 113.746094 C 176.035156 104.34375 171.523438 94.320312 171.910156 83.953125 C 172.519531 67.722656 184.910156 56.734375 185.4375 56.277344 L 186.894531 55.007812 L 188.347656 56.277344 C 188.875 56.734375 201.269531 67.722656 201.878906 83.953125 C 202.265625 94.320312 197.753906 104.34375 188.46875 113.746094 Z M 186.894531 61.054688 C 183.78125 64.34375 176.734375 72.980469 176.335938 84.15625 C 176.027344 92.652344 179.578125 100.992188 186.894531 108.980469 C 194.207031 100.992188 197.757812 92.652344 197.453125 84.15625 C 197.050781 72.980469 190.007812 64.34375 186.894531 61.054688 Z M 186.894531 61.054688 " fill-opacity="1" fill-rule="nonzero"/><path fill="#457d58" d="M 233.34375 98.257812 C 233.34375 98.257812 195.253906 95.648438 194.988281 136.613281 C 235.957031 136.355469 233.34375 98.257812 233.34375 98.257812 Z M 233.34375 98.257812 " fill-opacity="1" fill-rule="nonzero"/><path fill="#457d58" d="M 192.757812 138.84375 L 192.773438 136.601562 C 193.023438 97.96875 225.488281 96.011719 231.996094 96.011719 C 232.953125 96.011719 233.496094 96.046875 233.496094 96.046875 L 235.417969 96.183594 L 235.554688 98.105469 C 235.601562 98.804688 236.601562 115.335938 225.550781 127.242188 C 218.496094 134.847656 208.21875 138.746094 195 138.828125 Z M 231.152344 100.449219 C 222.414062 100.636719 198.589844 103.972656 197.257812 134.34375 C 208.097656 133.867188 216.515625 130.472656 222.304688 124.230469 C 229.9375 116.007812 231.039062 104.953125 231.152344 100.449219 Z M 231.152344 100.449219 " fill-opacity="1" fill-rule="nonzero"/><g fill="#7d9b76" fill-opacity="1"><g transform="translate(132.969789, 286.940575)"><g><path d="M 7.171875 -9.03125 C 7.171875 -9.1875 7.253906 -9.265625 7.421875 -9.265625 L 8.234375 -9.265625 C 8.398438 -9.265625 8.484375 -9.1875 8.484375 -9.03125 L 8.484375 -0.3125 C 8.484375 1.050781 8.082031 2.050781 7.28125 2.6875 C 6.488281 3.320312 5.410156 3.640625 4.046875 3.640625 C 3.785156 3.640625 3.59375 3.632812 3.46875 3.625 C 3.300781 3.613281 3.21875 3.53125 3.21875 3.375 L 3.265625 2.640625 C 3.265625 2.460938 3.34375 2.390625 3.5 2.421875 C 4.789062 2.484375 5.722656 2.289062 6.296875 1.84375 C 6.878906 1.40625 7.171875 0.675781 7.171875 -0.34375 L 7.171875 -0.984375 C 7.171875 -1.023438 7.160156 -1.050781 7.140625 -1.0625 C 7.117188 -1.070312 7.09375 -1.0625 7.0625 -1.03125 C 6.5 -0.300781 5.707031 0.0625 4.6875 0.0625 C 3.894531 0.0625 3.1875 -0.148438 2.5625 -0.578125 C 1.945312 -1.015625 1.539062 -1.625 1.34375 -2.40625 C 1.1875 -2.90625 1.109375 -3.648438 1.109375 -4.640625 C 1.109375 -5.171875 1.125 -5.617188 1.15625 -5.984375 C 1.1875 -6.347656 1.253906 -6.679688 1.359375 -6.984375 C 1.578125 -7.710938 1.972656 -8.296875 2.546875 -8.734375 C 3.117188 -9.179688 3.804688 -9.40625 4.609375 -9.40625 C 5.671875 -9.40625 6.488281 -9.0625 7.0625 -8.375 C 7.09375 -8.332031 7.117188 -8.316406 7.140625 -8.328125 C 7.160156 -8.335938 7.171875 -8.363281 7.171875 -8.40625 Z M 7.09375 -2.796875 C 7.125 -2.984375 7.144531 -3.207031 7.15625 -3.46875 C 7.164062 -3.738281 7.171875 -4.132812 7.171875 -4.65625 C 7.171875 -5.269531 7.164062 -5.679688 7.15625 -5.890625 C 7.144531 -6.109375 7.113281 -6.3125 7.0625 -6.5 C 6.96875 -7.007812 6.726562 -7.429688 6.34375 -7.765625 C 5.957031 -8.109375 5.472656 -8.28125 4.890625 -8.28125 C 4.316406 -8.28125 3.832031 -8.113281 3.4375 -7.78125 C 3.039062 -7.445312 2.757812 -7.019531 2.59375 -6.5 C 2.476562 -6.113281 2.421875 -5.503906 2.421875 -4.671875 C 2.421875 -3.773438 2.476562 -3.15625 2.59375 -2.8125 C 2.71875 -2.300781 2.984375 -1.878906 3.390625 -1.546875 C 3.804688 -1.210938 4.304688 -1.046875 4.890625 -1.046875 C 5.484375 -1.046875 5.972656 -1.207031 6.359375 -1.53125 C 6.742188 -1.863281 6.988281 -2.285156 7.09375 -2.796875 Z M 7.09375 -2.796875 "/></g></g></g><g fill="#7d9b76" fill-opacity="1"><g transform="translate(142.836836, 286.940575)"><g><path d="M 4.671875 -9.40625 C 5.765625 -9.40625 6.613281 -9.125 7.21875 -8.5625 C 7.820312 -8.007812 8.125 -7.269531 8.125 -6.34375 L 8.125 -0.234375 C 8.125 -0.078125 8.046875 0 7.890625 0 L 7.0625 0 C 6.90625 0 6.828125 -0.078125 6.828125 -0.234375 L 6.828125 -0.890625 C 6.828125 -0.929688 6.8125 -0.957031 6.78125 -0.96875 C 6.757812 -0.976562 6.738281 -0.96875 6.71875 -0.9375 C 6.382812 -0.582031 5.972656 -0.3125 5.484375 -0.125 C 4.992188 0.0507812 4.453125 0.140625 3.859375 0.140625 C 3.003906 0.140625 2.285156 -0.078125 1.703125 -0.515625 C 1.128906 -0.953125 0.84375 -1.625 0.84375 -2.53125 C 0.84375 -3.445312 1.175781 -4.171875 1.84375 -4.703125 C 2.507812 -5.234375 3.429688 -5.5 4.609375 -5.5 L 6.734375 -5.5 C 6.796875 -5.5 6.828125 -5.523438 6.828125 -5.578125 L 6.828125 -6.265625 C 6.828125 -6.890625 6.648438 -7.378906 6.296875 -7.734375 C 5.953125 -8.097656 5.414062 -8.28125 4.6875 -8.28125 C 4.113281 -8.28125 3.644531 -8.171875 3.28125 -7.953125 C 2.914062 -7.734375 2.679688 -7.425781 2.578125 -7.03125 C 2.546875 -6.882812 2.457031 -6.820312 2.3125 -6.84375 L 1.40625 -6.953125 C 1.25 -6.984375 1.175781 -7.050781 1.1875 -7.15625 C 1.3125 -7.832031 1.6875 -8.375 2.3125 -8.78125 C 2.945312 -9.195312 3.734375 -9.40625 4.671875 -9.40625 Z M 4.15625 -0.96875 C 4.875 -0.96875 5.5 -1.144531 6.03125 -1.5 C 6.5625 -1.863281 6.828125 -2.351562 6.828125 -2.96875 L 6.828125 -4.375 C 6.828125 -4.4375 6.796875 -4.46875 6.734375 -4.46875 L 4.8125 -4.46875 C 4.007812 -4.46875 3.363281 -4.300781 2.875 -3.96875 C 2.382812 -3.644531 2.140625 -3.1875 2.140625 -2.59375 C 2.140625 -2.0625 2.328125 -1.65625 2.703125 -1.375 C 3.085938 -1.101562 3.570312 -0.96875 4.15625 -0.96875 Z M 4.15625 -0.96875 "/></g></g></g><g fill="#7d9b76" fill-opacity="1"><g transform="translate(152.264525, 286.940575)"><g><path d="M 5.203125 -9.359375 C 5.609375 -9.359375 5.941406 -9.285156 6.203125 -9.140625 C 6.328125 -9.085938 6.375 -8.988281 6.34375 -8.84375 L 6.15625 -8.046875 C 6.113281 -7.890625 6.015625 -7.835938 5.859375 -7.890625 C 5.628906 -7.960938 5.332031 -7.992188 4.96875 -7.984375 C 4.332031 -7.960938 3.804688 -7.726562 3.390625 -7.28125 C 2.972656 -6.832031 2.765625 -6.265625 2.765625 -5.578125 L 2.765625 -0.234375 C 2.765625 -0.078125 2.6875 0 2.53125 0 L 1.703125 0 C 1.546875 0 1.46875 -0.078125 1.46875 -0.234375 L 1.46875 -9.03125 C 1.46875 -9.1875 1.546875 -9.265625 1.703125 -9.265625 L 2.53125 -9.265625 C 2.6875 -9.265625 2.765625 -9.1875 2.765625 -9.03125 L 2.765625 -8 C 2.765625 -7.945312 2.769531 -7.914062 2.78125 -7.90625 C 2.800781 -7.90625 2.828125 -7.925781 2.859375 -7.96875 C 3.109375 -8.40625 3.429688 -8.742188 3.828125 -8.984375 C 4.234375 -9.234375 4.691406 -9.359375 5.203125 -9.359375 Z M 5.203125 -9.359375 "/></g></g></g><g fill="#7d9b76" fill-opacity="1"><g transform="translate(159.001231, 286.940575)"><g><path d="M 7.15625 -12.578125 C 7.15625 -12.734375 7.234375 -12.8125 7.390625 -12.8125 L 8.21875 -12.8125 C 8.375 -12.8125 8.453125 -12.734375 8.453125 -12.578125 L 8.453125 -0.234375 C 8.453125 -0.078125 8.375 0 8.21875 0 L 7.390625 0 C 7.234375 0 7.15625 -0.078125 7.15625 -0.234375 L 7.15625 -0.9375 C 7.15625 -0.96875 7.144531 -0.984375 7.125 -0.984375 C 7.101562 -0.992188 7.078125 -0.988281 7.046875 -0.96875 C 6.773438 -0.613281 6.441406 -0.335938 6.046875 -0.140625 C 5.648438 0.046875 5.207031 0.140625 4.71875 0.140625 C 3.863281 0.140625 3.144531 -0.078125 2.5625 -0.515625 C 1.988281 -0.953125 1.59375 -1.550781 1.375 -2.3125 C 1.195312 -2.851562 1.109375 -3.628906 1.109375 -4.640625 C 1.109375 -5.648438 1.1875 -6.40625 1.34375 -6.90625 C 1.5625 -7.6875 1.960938 -8.296875 2.546875 -8.734375 C 3.128906 -9.179688 3.851562 -9.40625 4.71875 -9.40625 C 5.195312 -9.40625 5.632812 -9.3125 6.03125 -9.125 C 6.4375 -8.9375 6.773438 -8.664062 7.046875 -8.3125 C 7.078125 -8.28125 7.101562 -8.269531 7.125 -8.28125 C 7.144531 -8.289062 7.15625 -8.3125 7.15625 -8.34375 Z M 6.8125 -2.40625 C 6.925781 -2.644531 7.003906 -2.925781 7.046875 -3.25 C 7.097656 -3.582031 7.125 -4.046875 7.125 -4.640625 C 7.125 -5.222656 7.097656 -5.679688 7.046875 -6.015625 C 7.003906 -6.347656 6.921875 -6.644531 6.796875 -6.90625 C 6.648438 -7.320312 6.40625 -7.65625 6.0625 -7.90625 C 5.726562 -8.15625 5.332031 -8.28125 4.875 -8.28125 C 4.382812 -8.28125 3.960938 -8.15625 3.609375 -7.90625 C 3.253906 -7.664062 3 -7.34375 2.84375 -6.9375 C 2.695312 -6.664062 2.585938 -6.363281 2.515625 -6.03125 C 2.453125 -5.695312 2.421875 -5.234375 2.421875 -4.640625 C 2.421875 -4.054688 2.441406 -3.601562 2.484375 -3.28125 C 2.535156 -2.957031 2.625 -2.671875 2.75 -2.421875 C 2.894531 -1.984375 3.148438 -1.632812 3.515625 -1.375 C 3.890625 -1.113281 4.335938 -0.984375 4.859375 -0.984375 C 5.335938 -0.984375 5.742188 -1.113281 6.078125 -1.375 C 6.410156 -1.632812 6.65625 -1.976562 6.8125 -2.40625 Z M 6.8125 -2.40625 "/></g></g></g><g fill="#7d9b76" fill-opacity="1"><g transform="translate(168.99641, 286.940575)"><g><path d="M 5.078125 -0.96875 C 5.617188 -0.976562 6.085938 -1.101562 6.484375 -1.34375 C 6.890625 -1.582031 7.203125 -1.914062 7.421875 -2.34375 C 7.441406 -2.40625 7.484375 -2.445312 7.546875 -2.46875 C 7.609375 -2.5 7.671875 -2.492188 7.734375 -2.453125 L 8.265625 -2.15625 C 8.410156 -2.070312 8.445312 -1.96875 8.375 -1.84375 C 8.070312 -1.238281 7.628906 -0.753906 7.046875 -0.390625 C 6.460938 -0.0351562 5.769531 0.140625 4.96875 0.140625 C 4.113281 0.140625 3.390625 -0.0546875 2.796875 -0.453125 C 2.210938 -0.859375 1.789062 -1.421875 1.53125 -2.140625 C 1.300781 -2.753906 1.1875 -3.597656 1.1875 -4.671875 C 1.1875 -5.191406 1.195312 -5.609375 1.21875 -5.921875 C 1.238281 -6.234375 1.285156 -6.523438 1.359375 -6.796875 C 1.566406 -7.585938 1.984375 -8.21875 2.609375 -8.6875 C 3.234375 -9.164062 3.992188 -9.40625 4.890625 -9.40625 C 5.953125 -9.40625 6.785156 -9.128906 7.390625 -8.578125 C 7.992188 -8.035156 8.378906 -7.265625 8.546875 -6.265625 C 8.617188 -5.867188 8.65625 -5.257812 8.65625 -4.4375 C 8.65625 -4.269531 8.578125 -4.1875 8.421875 -4.1875 L 2.5625 -4.1875 C 2.5 -4.1875 2.46875 -4.160156 2.46875 -4.109375 C 2.46875 -3.492188 2.503906 -3.046875 2.578125 -2.765625 C 2.710938 -2.210938 2.992188 -1.773438 3.421875 -1.453125 C 3.859375 -1.128906 4.410156 -0.96875 5.078125 -0.96875 Z M 4.890625 -8.28125 C 4.273438 -8.28125 3.769531 -8.125 3.375 -7.8125 C 2.988281 -7.5 2.738281 -7.082031 2.625 -6.5625 C 2.550781 -6.3125 2.5 -5.894531 2.46875 -5.3125 C 2.46875 -5.25 2.5 -5.21875 2.5625 -5.21875 L 7.265625 -5.21875 C 7.328125 -5.21875 7.359375 -5.25 7.359375 -5.3125 C 7.335938 -5.84375 7.300781 -6.234375 7.25 -6.484375 C 7.113281 -7.035156 6.84375 -7.472656 6.4375 -7.796875 C 6.03125 -8.117188 5.515625 -8.28125 4.890625 -8.28125 Z M 4.890625 -8.28125 "/></g></g></g><g fill="#7d9b76" fill-opacity="1"><g transform="translate(178.845142, 286.940575)"><g><path d="M 5.3125 -9.390625 C 6.269531 -9.390625 7.039062 -9.101562 7.625 -8.53125 C 8.207031 -7.957031 8.5 -7.1875 8.5 -6.21875 L 8.5 -0.234375 C 8.5 -0.078125 8.421875 0 8.265625 0 L 7.4375 0 C 7.28125 0 7.203125 -0.078125 7.203125 -0.234375 L 7.203125 -5.96875 C 7.203125 -6.65625 7 -7.207031 6.59375 -7.625 C 6.1875 -8.050781 5.660156 -8.265625 5.015625 -8.265625 C 4.390625 -8.265625 3.875 -8.085938 3.46875 -7.734375 C 3.0625 -7.378906 2.828125 -6.914062 2.765625 -6.34375 L 2.765625 -0.234375 C 2.765625 -0.078125 2.6875 0 2.53125 0 L 1.703125 0 C 1.546875 0 1.46875 -0.078125 1.46875 -0.234375 L 1.46875 -9.03125 C 1.46875 -9.1875 1.546875 -9.265625 1.703125 -9.265625 L 2.53125 -9.265625 C 2.6875 -9.265625 2.765625 -9.1875 2.765625 -9.03125 L 2.765625 -8.34375 C 2.765625 -8.3125 2.773438 -8.285156 2.796875 -8.265625 C 2.828125 -8.242188 2.847656 -8.253906 2.859375 -8.296875 C 3.390625 -9.023438 4.207031 -9.390625 5.3125 -9.390625 Z M 5.3125 -9.390625 "/></g></g></g><g fill="#7d9b76" fill-opacity="1"><g transform="translate(188.785413, 286.940575)"><g><path d="M 4.5 0.09375 C 3.820312 0.09375 3.21875 -0.015625 2.6875 -0.234375 C 2.15625 -0.453125 1.742188 -0.742188 1.453125 -1.109375 C 1.171875 -1.484375 1.03125 -1.894531 1.03125 -2.34375 L 1.03125 -2.515625 C 1.03125 -2.671875 1.109375 -2.75 1.265625 -2.75 L 2.046875 -2.75 C 2.117188 -2.75 2.175781 -2.734375 2.21875 -2.703125 C 2.257812 -2.671875 2.28125 -2.628906 2.28125 -2.578125 L 2.28125 -2.421875 C 2.28125 -2.015625 2.488281 -1.660156 2.90625 -1.359375 C 3.320312 -1.066406 3.847656 -0.921875 4.484375 -0.921875 C 5.117188 -0.921875 5.628906 -1.0625 6.015625 -1.34375 C 6.410156 -1.632812 6.609375 -2 6.609375 -2.4375 C 6.609375 -2.738281 6.507812 -2.988281 6.3125 -3.1875 C 6.125 -3.382812 5.890625 -3.535156 5.609375 -3.640625 C 5.328125 -3.753906 4.90625 -3.894531 4.34375 -4.0625 C 3.65625 -4.257812 3.09375 -4.453125 2.65625 -4.640625 C 2.21875 -4.835938 1.84375 -5.109375 1.53125 -5.453125 C 1.226562 -5.804688 1.078125 -6.253906 1.078125 -6.796875 C 1.078125 -7.578125 1.382812 -8.195312 2 -8.65625 C 2.625 -9.125 3.4375 -9.359375 4.4375 -9.359375 C 5.101562 -9.359375 5.695312 -9.25 6.21875 -9.03125 C 6.738281 -8.8125 7.140625 -8.507812 7.421875 -8.125 C 7.703125 -7.738281 7.84375 -7.304688 7.84375 -6.828125 C 7.84375 -6.671875 7.757812 -6.59375 7.59375 -6.59375 L 6.84375 -6.59375 C 6.6875 -6.59375 6.609375 -6.632812 6.609375 -6.71875 L 6.609375 -6.828125 C 6.609375 -7.242188 6.410156 -7.59375 6.015625 -7.875 C 5.617188 -8.15625 5.082031 -8.296875 4.40625 -8.296875 C 3.789062 -8.296875 3.289062 -8.171875 2.90625 -7.921875 C 2.53125 -7.671875 2.34375 -7.328125 2.34375 -6.890625 C 2.34375 -6.472656 2.519531 -6.15625 2.875 -5.9375 C 3.238281 -5.71875 3.804688 -5.5 4.578125 -5.28125 C 5.285156 -5.082031 5.859375 -4.890625 6.296875 -4.703125 C 6.734375 -4.523438 7.109375 -4.257812 7.421875 -3.90625 C 7.742188 -3.550781 7.90625 -3.09375 7.90625 -2.53125 C 7.90625 -1.738281 7.597656 -1.101562 6.984375 -0.625 C 6.367188 -0.144531 5.539062 0.09375 4.5 0.09375 Z M 4.5 0.09375 "/></g></g></g><g fill="#7d9b76" fill-opacity="1"><g transform="translate(197.682243, 286.940575)"><g/></g></g><g fill="#7d9b76" fill-opacity="1"><g transform="translate(201.416739, 286.940575)"><g><path d="M 10.875 -0.296875 C 10.914062 -0.242188 10.9375 -0.191406 10.9375 -0.140625 C 10.9375 -0.046875 10.867188 0 10.734375 0 L 9.8125 0 C 9.6875 0 9.585938 -0.0390625 9.515625 -0.125 L 8.484375 -1.34375 C 8.441406 -1.382812 8.394531 -1.390625 8.34375 -1.359375 C 7.769531 -0.828125 7.179688 -0.441406 6.578125 -0.203125 C 5.984375 0.0234375 5.335938 0.140625 4.640625 0.140625 C 3.554688 0.140625 2.6875 -0.109375 2.03125 -0.609375 C 1.375 -1.117188 1.046875 -1.851562 1.046875 -2.8125 C 1.046875 -3.65625 1.28125 -4.378906 1.75 -4.984375 C 2.226562 -5.585938 2.894531 -6.171875 3.75 -6.734375 C 3.800781 -6.785156 3.804688 -6.828125 3.765625 -6.859375 C 3.054688 -7.734375 2.585938 -8.382812 2.359375 -8.8125 C 2.128906 -9.238281 2.015625 -9.664062 2.015625 -10.09375 C 2.015625 -10.957031 2.296875 -11.648438 2.859375 -12.171875 C 3.421875 -12.703125 4.164062 -12.96875 5.09375 -12.96875 C 6.03125 -12.96875 6.796875 -12.707031 7.390625 -12.1875 C 7.984375 -11.675781 8.28125 -11 8.28125 -10.15625 C 8.28125 -9.414062 8.050781 -8.773438 7.59375 -8.234375 C 7.132812 -7.703125 6.488281 -7.160156 5.65625 -6.609375 C 5.625 -6.578125 5.617188 -6.535156 5.640625 -6.484375 L 7.78125 -3.96875 L 8.390625 -3.234375 C 8.429688 -3.191406 8.472656 -3.191406 8.515625 -3.234375 C 8.898438 -3.703125 9.289062 -4.210938 9.6875 -4.765625 C 9.769531 -4.878906 9.878906 -4.898438 10.015625 -4.828125 L 10.609375 -4.484375 C 10.691406 -4.429688 10.734375 -4.367188 10.734375 -4.296875 C 10.734375 -4.265625 10.710938 -4.21875 10.671875 -4.15625 C 10.054688 -3.28125 9.585938 -2.65625 9.265625 -2.28125 L 9.25 -2.25 C 9.25 -2.195312 9.285156 -2.132812 9.359375 -2.0625 L 10.140625 -1.140625 Z M 5.125 -11.75 C 4.570312 -11.75 4.128906 -11.597656 3.796875 -11.296875 C 3.472656 -11.003906 3.3125 -10.601562 3.3125 -10.09375 C 3.3125 -9.800781 3.398438 -9.488281 3.578125 -9.15625 C 3.765625 -8.820312 4.164062 -8.285156 4.78125 -7.546875 C 4.8125 -7.492188 4.851562 -7.488281 4.90625 -7.53125 C 5.582031 -7.988281 6.097656 -8.414062 6.453125 -8.8125 C 6.804688 -9.207031 6.984375 -9.65625 6.984375 -10.15625 C 6.984375 -10.632812 6.8125 -11.019531 6.46875 -11.3125 C 6.125 -11.601562 5.675781 -11.75 5.125 -11.75 Z M 4.671875 -0.96875 C 5.203125 -0.96875 5.695312 -1.070312 6.15625 -1.28125 C 6.625 -1.488281 7.097656 -1.8125 7.578125 -2.25 C 7.628906 -2.289062 7.632812 -2.332031 7.59375 -2.375 L 6.796875 -3.3125 C 6.546875 -3.601562 6.34375 -3.835938 6.1875 -4.015625 C 5.394531 -4.929688 4.878906 -5.535156 4.640625 -5.828125 C 4.597656 -5.867188 4.550781 -5.875 4.5 -5.84375 C 3.8125 -5.34375 3.28125 -4.863281 2.90625 -4.40625 C 2.53125 -3.945312 2.34375 -3.425781 2.34375 -2.84375 C 2.34375 -2.25 2.550781 -1.785156 2.96875 -1.453125 C 3.394531 -1.128906 3.960938 -0.96875 4.671875 -0.96875 Z M 4.671875 -0.96875 "/></g></g></g><g fill="#7d9b76" fill-opacity="1"><g transform="translate(213.608658, 286.940575)"><g/></g></g><g fill="#7d9b76" fill-opacity="1"><g transform="translate(217.343158, 286.940575)"><g><path d="M 4.96875 0.140625 C 4.082031 0.140625 3.328125 -0.0859375 2.703125 -0.546875 C 2.078125 -1.003906 1.644531 -1.625 1.40625 -2.40625 C 1.25 -2.9375 1.171875 -3.691406 1.171875 -4.671875 C 1.171875 -5.546875 1.25 -6.289062 1.40625 -6.90625 C 1.625 -7.664062 2.050781 -8.269531 2.6875 -8.71875 C 3.320312 -9.175781 4.082031 -9.40625 4.96875 -9.40625 C 5.851562 -9.40625 6.625 -9.179688 7.28125 -8.734375 C 7.9375 -8.285156 8.359375 -7.722656 8.546875 -7.046875 C 8.597656 -6.878906 8.632812 -6.71875 8.65625 -6.5625 L 8.65625 -6.515625 C 8.65625 -6.378906 8.582031 -6.300781 8.4375 -6.28125 L 7.640625 -6.1875 L 7.578125 -6.1875 C 7.472656 -6.1875 7.398438 -6.253906 7.359375 -6.390625 C 7.359375 -6.441406 7.347656 -6.515625 7.328125 -6.609375 C 7.210938 -7.078125 6.941406 -7.472656 6.515625 -7.796875 C 6.085938 -8.117188 5.570312 -8.28125 4.96875 -8.28125 C 4.351562 -8.28125 3.835938 -8.117188 3.421875 -7.796875 C 3.015625 -7.472656 2.753906 -7.039062 2.640625 -6.5 C 2.523438 -6.039062 2.46875 -5.425781 2.46875 -4.65625 C 2.46875 -3.84375 2.523438 -3.21875 2.640625 -2.78125 C 2.753906 -2.226562 3.015625 -1.789062 3.421875 -1.46875 C 3.835938 -1.144531 4.351562 -0.984375 4.96875 -0.984375 C 5.5625 -0.984375 6.070312 -1.140625 6.5 -1.453125 C 6.9375 -1.765625 7.207031 -2.160156 7.3125 -2.640625 C 7.320312 -2.660156 7.328125 -2.691406 7.328125 -2.734375 L 7.34375 -2.75 C 7.351562 -2.90625 7.445312 -2.972656 7.625 -2.953125 L 8.40625 -2.8125 C 8.5625 -2.789062 8.632812 -2.703125 8.625 -2.546875 L 8.546875 -2.234375 C 8.367188 -1.523438 7.945312 -0.953125 7.28125 -0.515625 C 6.625 -0.078125 5.851562 0.140625 4.96875 0.140625 Z M 4.96875 0.140625 "/></g></g></g><g fill="#7d9b76" fill-opacity="1"><g transform="translate(226.935614, 286.940575)"><g><path d="M 5.015625 0.140625 C 4.128906 0.140625 3.367188 -0.0820312 2.734375 -0.53125 C 2.109375 -0.976562 1.671875 -1.601562 1.421875 -2.40625 C 1.253906 -2.957031 1.171875 -3.707031 1.171875 -4.65625 C 1.171875 -5.582031 1.25 -6.328125 1.40625 -6.890625 C 1.65625 -7.671875 2.09375 -8.285156 2.71875 -8.734375 C 3.34375 -9.179688 4.109375 -9.40625 5.015625 -9.40625 C 5.898438 -9.40625 6.65625 -9.179688 7.28125 -8.734375 C 7.90625 -8.285156 8.332031 -7.675781 8.5625 -6.90625 C 8.738281 -6.320312 8.828125 -5.570312 8.828125 -4.65625 C 8.828125 -3.707031 8.738281 -2.957031 8.5625 -2.40625 C 8.320312 -1.601562 7.882812 -0.976562 7.25 -0.53125 C 6.625 -0.0820312 5.878906 0.140625 5.015625 0.140625 Z M 5.015625 -0.984375 C 5.597656 -0.984375 6.097656 -1.144531 6.515625 -1.46875 C 6.929688 -1.789062 7.210938 -2.226562 7.359375 -2.78125 C 7.460938 -3.175781 7.515625 -3.796875 7.515625 -4.640625 C 7.515625 -5.515625 7.460938 -6.128906 7.359375 -6.484375 C 7.222656 -7.035156 6.941406 -7.472656 6.515625 -7.796875 C 6.097656 -8.117188 5.585938 -8.28125 4.984375 -8.28125 C 4.398438 -8.28125 3.898438 -8.117188 3.484375 -7.796875 C 3.066406 -7.472656 2.785156 -7.035156 2.640625 -6.484375 C 2.535156 -6.128906 2.484375 -5.515625 2.484375 -4.640625 C 2.484375 -3.753906 2.535156 -3.132812 2.640625 -2.78125 C 2.773438 -2.226562 3.050781 -1.789062 3.46875 -1.46875 C 3.894531 -1.144531 4.410156 -0.984375 5.015625 -0.984375 Z M 5.015625 -0.984375 "/></g></g></g><g fill="#7d9b76" fill-opacity="1"><g transform="translate(237.00404, 286.940575)"><g><path d="M 2.46875 -0.0625 C 2.144531 -0.0625 1.875 -0.160156 1.65625 -0.359375 C 1.445312 -0.566406 1.34375 -0.828125 1.34375 -1.140625 C 1.34375 -1.429688 1.453125 -1.679688 1.671875 -1.890625 C 1.898438 -2.109375 2.164062 -2.21875 2.46875 -2.21875 C 2.757812 -2.21875 3.019531 -2.109375 3.25 -1.890625 C 3.488281 -1.679688 3.609375 -1.429688 3.609375 -1.140625 C 3.609375 -0.828125 3.5 -0.566406 3.28125 -0.359375 C 3.0625 -0.160156 2.789062 -0.0625 2.46875 -0.0625 Z M 2.46875 -0.0625 "/></g></g></g></svg>