<svg xmlns="http://www.w3.org/2000/svg" xmlns:xlink="http://www.w3.org/1999/xlink" width="500" zoomAndPan="magnify" viewBox="0 0 375 374.999991" height="500" preserveAspectRatio="xMidYMid meet" version="1.0"><defs><clipPath id="d4e8761ab6"><path d="M 15.171875 19.921875 L 359.828125 19.921875 L 359.828125 364.578125 L 15.171875 364.578125 Z M 15.171875 19.921875 " clip-rule="nonzero"/></clipPath><clipPath id="4698a2bf4a"><path d="M 187.5 19.921875 C 92.324219 19.921875 15.171875 97.078125 15.171875 192.25 C 15.171875 287.425781 92.324219 364.578125 187.5 364.578125 C 282.675781 364.578125 359.828125 287.425781 359.828125 192.25 C 359.828125 97.078125 282.675781 19.921875 187.5 19.921875 Z M 187.5 19.921875 " clip-rule="nonzero"/></clipPath><clipPath id="b0c3cf97dd"><path d="M 15.171875 14.570312 L 365.421875 14.570312 L 365.421875 364.820312 L 15.171875 364.820312 Z M 15.171875 14.570312 " clip-rule="nonzero"/></clipPath></defs><rect x="-37.5" width="450" fill="#ffffff" y="-37.499999" height="449.999989" fill-opacity="1"/><rect x="-37.5" width="450" fill="#457d58" y="-37.499999" height="449.999989" fill-opacity="1"/><g clip-path="url(#d4e8761ab6)"><g clip-path="url(#4698a2bf4a)"><path fill="#cbddd1" d="M 15.171875 19.921875 L 359.828125 19.921875 L 359.828125 364.578125 L 15.171875 364.578125 Z M 15.171875 19.921875 " fill-opacity="1" fill-rule="nonzero"/></g></g><g clip-path="url(#b0c3cf97dd)"><path fill="#f6f6e9" d="M 190.171875 14.570312 C 93.617188 14.570312 15.171875 93.015625 15.171875 189.570312 C 15.171875 286.125 93.617188 364.574219 190.171875 364.574219 C 286.726562 364.574219 365.175781 286.125 365.175781 189.570312 C 365.175781 93.015625 286.726562 14.570312 190.171875 14.570312 Z M 190.171875 22.179688 C 282.71875 22.179688 357.566406 97.027344 357.566406 189.570312 C 357.566406 282.117188 282.71875 356.964844 190.171875 356.964844 C 97.628906 356.964844 22.78125 282.117188 22.78125 189.570312 C 22.78125 97.027344 97.628906 22.179688 190.171875 22.179688 Z M 190.171875 22.179688 " fill-opacity="1" fill-rule="nonzero"/></g><path fill="#457d58" d="M 42.28125 185.734375 C 42.28125 185.734375 162.59375 177.5 163.417969 306.871094 C 34.039062 306.050781 42.28125 185.734375 42.28125 185.734375 Z M 42.28125 185.734375 " fill-opacity="1" fill-rule="nonzero"/><path fill="#457d58" d="M 170.453125 313.914062 L 163.375 313.863281 C 121.644531 313.597656 89.1875 301.292969 66.898438 277.277344 C 32.007812 239.679688 35.160156 187.460938 35.308594 185.261719 L 35.726562 179.191406 L 41.804688 178.761719 C 41.804688 178.761719 43.515625 178.640625 46.546875 178.640625 C 67.09375 178.640625 169.632812 184.824219 170.414062 306.824219 Z M 49.226562 192.652344 C 49.617188 206.929688 53.164062 241.976562 77.238281 267.863281 C 95.519531 287.503906 122.078125 298.199219 156.246094 299.703125 C 152.046875 203.796875 76.824219 193.246094 49.226562 192.652344 Z M 49.226562 192.652344 " fill-opacity="1" fill-rule="nonzero"/><path fill="#457d58" d="M 185.59375 58.433594 C 185.59375 58.433594 276.492188 137.675781 185.59375 229.742188 C 94.695312 137.675781 185.59375 58.433594 185.59375 58.433594 Z M 185.59375 58.433594 " fill-opacity="1" fill-rule="nonzero"/><path fill="#457d58" d="M 185.59375 239.6875 L 180.621094 234.648438 C 151.292969 204.953125 137.046875 173.296875 138.273438 140.5625 C 140.191406 89.304688 179.332031 54.609375 180.996094 53.160156 L 185.59375 49.15625 L 190.1875 53.160156 C 191.855469 54.609375 230.992188 89.304688 232.914062 140.5625 C 234.132812 173.296875 219.890625 204.953125 190.566406 234.652344 Z M 185.59375 68.246094 C 175.761719 78.632812 153.511719 105.910156 152.242188 141.210938 C 151.277344 168.03125 162.492188 194.371094 185.59375 219.597656 C 208.691406 194.371094 219.902344 168.03125 218.941406 141.210938 C 217.671875 105.910156 195.425781 78.632812 185.59375 68.246094 Z M 185.59375 68.246094 " fill-opacity="1" fill-rule="nonzero"/><path fill="#457d58" d="M 332.285156 185.734375 C 332.285156 185.734375 211.988281 177.5 211.15625 306.871094 C 340.535156 306.050781 332.285156 185.734375 332.285156 185.734375 Z M 332.285156 185.734375 " fill-opacity="1" fill-rule="nonzero"/><path fill="#457d58" d="M 204.113281 313.914062 L 204.160156 306.824219 C 204.945312 184.824219 307.480469 178.640625 328.027344 178.640625 C 331.050781 178.640625 332.765625 178.761719 332.765625 178.761719 L 338.828125 179.191406 L 339.265625 185.261719 C 339.414062 187.460938 342.566406 239.675781 307.671875 277.277344 C 285.390625 301.292969 252.933594 313.597656 211.191406 313.863281 Z M 325.367188 192.652344 C 297.769531 193.246094 222.527344 203.78125 218.320312 299.699219 C 252.550781 298.199219 279.132812 287.46875 297.421875 267.761719 C 321.519531 241.796875 325.003906 206.882812 325.367188 192.652344 Z M 325.367188 192.652344 " fill-opacity="1" fill-rule="nonzero"/></svg>